<?xml version="1.0" encoding="UTF-8"?>
<svg version="1.1" xmlns="http://www.w3.org/2000/svg" width="120" height="50">
<path d="M0 0 C1.46953125 0.01353516 1.46953125 0.01353516 2.96875 0.02734375 C3.8040625 0.03894531 4.639375 0.05054688 5.5 0.0625 C6.16 0.0625 6.82 0.0625 7.5 0.0625 C9.5 0.0625 11.5 0.0625 13.5 0.0625 C13.83 2.0425 14.16 4.0225 14.5 6.0625 C15.11875 5.258125 15.7375 4.45375 16.375 3.625 C18.5 1.0625 18.5 1.0625 20.5 0.0625 C22.33208873 -0.00818244 24.16667684 -0.02171041 26 0 C27.46953125 0.01353516 27.46953125 0.01353516 28.96875 0.02734375 C29.8040625 0.03894531 30.639375 0.05054688 31.5 0.0625 C32.16 0.0625 32.82 0.0625 33.5 0.0625 C35.48 0.0625 37.46 0.0625 39.5 0.0625 C39.995 8.9725 39.995 8.9725 40.5 18.0625 C42.48 18.0625 44.46 18.0625 46.5 18.0625 C47.625 21.8125 47.625 21.8125 46.5 24.0625 C44.52 24.0625 42.54 24.0625 40.5 24.0625 C40.26925781 24.60519531 40.03851563 25.14789063 39.80078125 25.70703125 C38.29019213 29.02077419 37.02230031 31.58496829 34.3125 34.0625 C29.23357952 35.86833839 24.47085411 35.98502745 19.5625 33.6875 C17.5 32.0625 17.5 32.0625 15.5 30.0625 C15.5 28.7425 15.5 27.4225 15.5 26.0625 C18.375 25.875 18.375 25.875 21.5 26.0625 C22.16 27.0525 22.82 28.0425 23.5 29.0625 C27.08357241 29.31265873 27.08357241 29.31265873 30.5 29.0625 C31.16 27.0825 31.82 25.1025 32.5 23.0625 C31.51 23.5575 31.51 23.5575 30.5 24.0625 C25.58003072 24.59368252 21.72672403 24.81355553 17.4375 22.1875 C15.5 20.0625 15.5 20.0625 14.5 18.0625 C14.40203125 18.79855469 14.3040625 19.53460937 14.203125 20.29296875 C12.67468955 30.26732768 12.67468955 30.26732768 8.5 34.0625 C3.45023398 35.74575534 -1.57497442 35.96357581 -6.4375 33.6875 C-8.5 32.0625 -8.5 32.0625 -10.5 30.0625 C-10.5 28.7425 -10.5 27.4225 -10.5 26.0625 C-7.625 25.875 -7.625 25.875 -4.5 26.0625 C-3.84 27.0525 -3.18 28.0425 -2.5 29.0625 C1.08357241 29.31265873 1.08357241 29.31265873 4.5 29.0625 C5.16 27.0825 5.82 25.1025 6.5 23.0625 C5.84 23.3925 5.18 23.7225 4.5 24.0625 C-0.27050211 24.57754536 -4.22657529 24.75227172 -8.5 22.4375 C-11.79925925 18.51962965 -12.7552169 15.04737935 -12.375 10 C-11.76051041 6.13537873 -10.29270126 3.85520126 -7.5 1.0625 C-4.88322622 -0.24588689 -2.91798478 -0.03455508 0 0 Z M-4.5 6.0625 C-6.37402261 8.56119682 -6.50306118 9.9155634 -6.4375 13.0625 C-5.27834468 16.77179702 -3.68157989 17.94144674 -0.5 20.0625 C2.28649808 19.15877089 4.22051967 18.3233483 6.375 16.3125 C7.9472882 13.1679236 7.48936706 11.38394655 6.5 8.0625 C4.99632505 5.98599649 3.9149105 5.23649473 1.5625 4.25 C-1.1302064 4.00520851 -2.2936912 4.51808384 -4.5 6.0625 Z M21.5 6.0625 C19.62597739 8.56119682 19.49693882 9.9155634 19.5625 13.0625 C20.72165532 16.77179702 22.31842011 17.94144674 25.5 20.0625 C28.28649808 19.15877089 30.22051967 18.3233483 32.375 16.3125 C33.9472882 13.1679236 33.48936706 11.38394655 32.5 8.0625 C30.99632505 5.98599649 29.9149105 5.23649473 27.5625 4.25 C24.8697936 4.00520851 23.7063088 4.51808384 21.5 6.0625 Z " fill="#333333" transform="translate(68.5,9.9375)"/>
<path d="M0 0 C1.65 0 3.3 0 5 0 C5.04898438 0.96421875 5.09796875 1.9284375 5.1484375 2.921875 C5.22320312 4.18515625 5.29796875 5.4484375 5.375 6.75 C5.44460937 8.00296875 5.51421875 9.2559375 5.5859375 10.546875 C5.95455717 13.62102395 6.2909095 15.46412927 8 18 C9.88850355 19.07642709 9.88850355 19.07642709 12 19 C13.75592934 18.05389214 13.75592934 18.05389214 15 16 C15.37674518 13.20748417 15.60191941 10.61220799 15.6875 7.8125 C15.72166016 7.06291016 15.75582031 6.31332031 15.79101562 5.54101562 C15.87334294 3.69453162 15.93835281 1.84729006 16 0 C17.98 0 19.96 0 22 0 C22 7.92 22 15.84 22 24 C19.298125 24.103125 16.59625 24.20625 13.8125 24.3125 C12.97050049 24.35802002 12.12850098 24.40354004 11.26098633 24.45043945 C7.32319119 24.52298887 5.38128282 24.23977579 1.96875 22.09375 C-0.80560318 17.73405214 -0.5572556 14.23699625 -0.3125 9.1875 C-0.28994141 8.30384766 -0.26738281 7.42019531 -0.24414062 6.50976562 C-0.18547428 4.3391109 -0.09579979 2.1693331 0 0 Z " fill="#333333" transform="translate(33,10)"/>
<path d="M0 0 C2.701875 -0.103125 5.40375 -0.20625 8.1875 -0.3125 C9.02949951 -0.35802002 9.87149902 -0.40354004 10.73901367 -0.45043945 C14.67680881 -0.52298887 16.61871718 -0.23977579 20.03125 1.90625 C22.80560318 6.26594786 22.5572556 9.76300375 22.3125 14.8125 C22.28994141 15.69615234 22.26738281 16.57980469 22.24414062 17.49023438 C22.18547428 19.6608891 22.09579979 21.8306669 22 24 C20.35 24 18.7 24 17 24 C16.96261719 23.04738281 16.92523437 22.09476563 16.88671875 21.11328125 C16.82097656 19.85902344 16.75523438 18.60476562 16.6875 17.3125 C16.62949219 16.07113281 16.57148438 14.82976563 16.51171875 13.55078125 C15.99089024 9.93678801 15.09845383 7.94233607 13 5 C9.70924004 5.37904208 9.70924004 5.37904208 7 7 C6.76298761 9.85877909 6.57780818 12.69883297 6.4375 15.5625 C6.39431641 16.36880859 6.35113281 17.17511719 6.30664062 18.00585938 C6.20024738 20.00368805 6.09959112 22.0018207 6 24 C4.02 24 2.04 24 0 24 C0 16.08 0 8.16 0 0 Z " fill="#333333" transform="translate(8,10)"/>
</svg>
